#N canvas 120 50 1680 1000 10;
#X declare -lib mrpeach;
#X obj 912 110 import mrpeach;
#X msg 969 184 disconnect;
#X obj -9 887 packOSC;
#X obj 872 904 udpsend;
#X msg 910 145 connect localhost 5001;
#X floatatom -19 168 5 0 0 0 - - -;
#X obj -19 127 env~;
#X obj -8 640 pack 1 2 3 4 5 6 7 8 9 10 11 12 13 14 15 16 17 18 19
20 21 22 23 24 25 26 27 28 29 30 31 32 33 34 35 36 37 38 39 40 41 42
43 44 45 46 47 48 49 50;
#X floatatom -9 178 5 0 0 0 - - -;
#X obj -9 137 env~;
#X floatatom 1 188 5 0 0 0 - - -;
#X obj 1 147 env~;
#X floatatom 11 198 5 0 0 0 - - -;
#X obj 11 157 env~;
#X floatatom 21 208 5 0 0 0 - - -;
#X obj 21 167 env~;
#X floatatom 31 218 5 0 0 0 - - -;
#X obj 31 177 env~;
#X floatatom 41 228 5 0 0 0 - - -;
#X obj 41 187 env~;
#X floatatom 51 238 5 0 0 0 - - -;
#X obj 51 197 env~;
#X floatatom 61 248 5 0 0 0 - - -;
#X obj 61 207 env~;
#X floatatom 71 258 5 0 0 0 - - -;
#X obj 71 217 env~;
#X floatatom 81 268 5 0 0 0 - - -;
#X obj 81 227 env~;
#X floatatom 91 278 5 0 0 0 - - -;
#X obj 91 237 env~;
#X floatatom 101 288 5 0 0 0 - - -;
#X obj 101 247 env~;
#X floatatom 111 298 5 0 0 0 - - -;
#X obj 111 257 env~;
#X floatatom 121 308 5 0 0 0 - - -;
#X obj 121 267 env~;
#X floatatom 131 318 5 0 0 0 - - -;
#X obj 131 277 env~;
#X floatatom 141 328 5 0 0 0 - - -;
#X obj 141 287 env~;
#X floatatom 151 338 5 0 0 0 - - -;
#X obj 151 297 env~;
#X floatatom 161 348 5 0 0 0 - - -;
#X obj 161 307 env~;
#X floatatom 171 358 5 0 0 0 - - -;
#X obj 171 317 env~;
#X floatatom 181 368 5 0 0 0 - - -;
#X obj 181 327 env~;
#X floatatom 191 378 5 0 0 0 - - -;
#X obj 191 337 env~;
#X floatatom 201 388 5 0 0 0 - - -;
#X obj 201 347 env~;
#X floatatom 211 398 5 0 0 0 - - -;
#X obj 211 357 env~;
#X floatatom 221 408 5 0 0 0 - - -;
#X obj 221 367 env~;
#X floatatom 231 418 5 0 0 0 - - -;
#X obj 231 377 env~;
#X floatatom 241 428 5 0 0 0 - - -;
#X obj 241 387 env~;
#X floatatom 251 438 5 0 0 0 - - -;
#X obj 251 397 env~;
#X floatatom 261 448 5 0 0 0 - - -;
#X obj 261 407 env~;
#X floatatom 271 458 5 0 0 0 - - -;
#X obj 271 417 env~;
#X floatatom 281 468 5 0 0 0 - - -;
#X obj 281 427 env~;
#X floatatom 291 478 5 0 0 0 - - -;
#X obj 291 437 env~;
#X floatatom 301 488 5 0 0 0 - - -;
#X obj 301 447 env~;
#X floatatom 311 498 5 0 0 0 - - -;
#X obj 311 457 env~;
#X floatatom 321 508 5 0 0 0 - - -;
#X obj 321 467 env~;
#X floatatom 331 518 5 0 0 0 - - -;
#X obj 331 477 env~;
#X floatatom 340 526 5 0 0 0 - - -;
#X obj 341 487 env~;
#X floatatom 350 536 5 0 0 0 - - -;
#X obj 350 495 env~;
#X floatatom 360 546 5 0 0 0 - - -;
#X obj 360 505 env~;
#X floatatom 370 556 5 0 0 0 - - -;
#X obj 370 515 env~;
#X floatatom 375 567 5 0 0 0 - - -;
#X obj 375 526 env~;
#X floatatom 385 577 5 0 0 0 - - -;
#X obj 385 536 env~;
#X floatatom 395 587 5 0 0 0 - - -;
#X obj 395 546 env~;
#X floatatom 405 597 5 0 0 0 - - -;
#X obj 405 556 env~;
#X floatatom 415 607 5 0 0 0 - - -;
#X obj 415 566 env~;
#X floatatom 425 617 5 0 0 0 - - -;
#X obj 425 576 env~;
#X floatatom 434 624 5 0 0 0 - - -;
#X obj 433 582 env~;
#X floatatom 442 629 5 0 0 0 - - -;
#X obj 440 587 env~;
#X floatatom 447 635 5 0 0 0 - - -;
#X obj 447 593 env~;
#X floatatom 456 639 5 0 0 0 - - -;
#X obj 456 598 env~;
#X obj 145 42 adc~ 1 2 3 4 5 6 7 8 9 10 11 12 13 14 15 16 17 18 19
20 21 22 23 24 25 26 27 28 29 30 31 32 33 34 35 36 37 38 39 40 41 42
43 44 45 46 47 48 49 50;
#X msg -8 753 sendtyped /rayons ffffffffffffffffffffffffffffffffffffffffffffffffff
\$1 \$2 \$3 \$4 \$5 \$6 \$7 \$8 \$9 \$10 \$11 \$12 \$13 \$14 \$15 \$16
\$17 \$18 \$19 \$20 \$21 \$22 \$23 \$24 \$25 \$26 \$27 \$28 \$29 \$30
\$31 \$32 \$33 \$34 \$35 \$36 \$37 \$38 \$39 \$40 \$41 \$42 \$43 \$44
\$45 \$46 \$47 \$48 \$49 \$50;
#X connect 1 0 3 0;
#X connect 2 0 3 0;
#X connect 4 0 3 0;
#X connect 5 0 7 0;
#X connect 6 0 5 0;
#X connect 7 0 107 0;
#X connect 8 0 7 1;
#X connect 9 0 8 0;
#X connect 10 0 7 2;
#X connect 11 0 10 0;
#X connect 12 0 7 3;
#X connect 13 0 12 0;
#X connect 14 0 7 4;
#X connect 15 0 14 0;
#X connect 16 0 7 5;
#X connect 17 0 16 0;
#X connect 18 0 7 6;
#X connect 19 0 18 0;
#X connect 20 0 7 7;
#X connect 21 0 20 0;
#X connect 22 0 7 8;
#X connect 23 0 22 0;
#X connect 24 0 7 9;
#X connect 25 0 24 0;
#X connect 26 0 7 10;
#X connect 27 0 26 0;
#X connect 28 0 7 11;
#X connect 29 0 28 0;
#X connect 30 0 7 12;
#X connect 31 0 30 0;
#X connect 32 0 7 13;
#X connect 33 0 32 0;
#X connect 34 0 7 14;
#X connect 35 0 34 0;
#X connect 36 0 7 15;
#X connect 37 0 36 0;
#X connect 38 0 7 16;
#X connect 39 0 38 0;
#X connect 40 0 7 17;
#X connect 41 0 40 0;
#X connect 42 0 7 18;
#X connect 43 0 42 0;
#X connect 44 0 7 19;
#X connect 45 0 44 0;
#X connect 46 0 7 20;
#X connect 47 0 46 0;
#X connect 48 0 7 21;
#X connect 49 0 48 0;
#X connect 50 0 7 22;
#X connect 51 0 50 0;
#X connect 52 0 7 23;
#X connect 53 0 52 0;
#X connect 54 0 7 24;
#X connect 55 0 54 0;
#X connect 56 0 7 25;
#X connect 57 0 56 0;
#X connect 58 0 7 26;
#X connect 59 0 58 0;
#X connect 60 0 7 27;
#X connect 61 0 60 0;
#X connect 62 0 7 28;
#X connect 63 0 62 0;
#X connect 64 0 7 29;
#X connect 65 0 64 0;
#X connect 66 0 7 30;
#X connect 67 0 66 0;
#X connect 68 0 7 31;
#X connect 69 0 68 0;
#X connect 70 0 7 32;
#X connect 71 0 70 0;
#X connect 72 0 7 33;
#X connect 73 0 72 0;
#X connect 74 0 7 34;
#X connect 75 0 74 0;
#X connect 76 0 7 35;
#X connect 77 0 76 0;
#X connect 78 0 7 36;
#X connect 79 0 78 0;
#X connect 80 0 7 37;
#X connect 81 0 80 0;
#X connect 82 0 7 38;
#X connect 83 0 82 0;
#X connect 84 0 7 39;
#X connect 85 0 84 0;
#X connect 86 0 7 40;
#X connect 87 0 86 0;
#X connect 88 0 7 41;
#X connect 89 0 88 0;
#X connect 90 0 7 42;
#X connect 91 0 90 0;
#X connect 92 0 7 43;
#X connect 93 0 92 0;
#X connect 94 0 7 44;
#X connect 95 0 94 0;
#X connect 96 0 7 45;
#X connect 97 0 96 0;
#X connect 98 0 7 46;
#X connect 99 0 98 0;
#X connect 100 0 7 47;
#X connect 101 0 100 0;
#X connect 102 0 7 48;
#X connect 103 0 102 0;
#X connect 104 0 7 49;
#X connect 105 0 104 0;
#X connect 106 0 6 0;
#X connect 106 1 9 0;
#X connect 106 2 11 0;
#X connect 106 3 13 0;
#X connect 106 4 15 0;
#X connect 106 5 17 0;
#X connect 106 6 19 0;
#X connect 106 7 21 0;
#X connect 106 8 23 0;
#X connect 106 9 25 0;
#X connect 106 10 27 0;
#X connect 106 11 29 0;
#X connect 106 12 31 0;
#X connect 106 13 33 0;
#X connect 106 14 35 0;
#X connect 106 15 37 0;
#X connect 106 16 39 0;
#X connect 106 17 41 0;
#X connect 106 18 43 0;
#X connect 106 19 45 0;
#X connect 106 20 47 0;
#X connect 106 21 49 0;
#X connect 106 22 51 0;
#X connect 106 23 53 0;
#X connect 106 24 55 0;
#X connect 106 25 57 0;
#X connect 106 26 59 0;
#X connect 106 27 61 0;
#X connect 106 28 63 0;
#X connect 106 29 65 0;
#X connect 106 30 67 0;
#X connect 106 31 69 0;
#X connect 106 32 71 0;
#X connect 106 33 73 0;
#X connect 106 34 75 0;
#X connect 106 35 77 0;
#X connect 106 36 79 0;
#X connect 106 37 81 0;
#X connect 106 38 83 0;
#X connect 106 39 85 0;
#X connect 106 40 87 0;
#X connect 106 41 89 0;
#X connect 106 42 91 0;
#X connect 106 43 93 0;
#X connect 106 44 95 0;
#X connect 106 45 97 0;
#X connect 106 46 99 0;
#X connect 106 47 101 0;
#X connect 106 48 103 0;
#X connect 106 49 105 0;
#X connect 107 0 2 0;
