#N canvas 3 53 1905 988 10;
#X declare -lib mrpeach;
#X obj 649 -267 import mrpeach;
#X msg 1073 1508 disconnect;
#X obj 854 1547 udpsend;
#X obj 854 1489 packOSC;
#X obj 463 -243 bng 15 250 50 0 empty empty empty 17 7 0 10 -262144
-1 -1;
#X obj 463 -214 s b;
#X obj 1073 1453 r b;
#X msg 585 -226 print;
#X obj 585 -176 hid;
#X floatatom 584 -60 5 0 0 0 - - -;
#X obj 585 -137 route abs;
#X floatatom 629 -60 5 0 0 0 - - -;
#X floatatom 678 -68 5 0 0 0 - - -;
#X obj 531 -270 r b;
#X obj 975 295 hsl 128 15 5000 10000 1 0 empty empty empty -2 -8 0
10 -262144 -1 -1 0 1;
#X floatatom 1107 341 5 0 0 0 - - -;
#X obj 938 753 line;
#X msg 938 378 set;
#X obj 938 425 \$1 \$2;
#X msg 938 460 \$1 \$2;
#X obj 985 538 /;
#X floatatom 985 570 5 0 0 0 - - -;
#X text 982 586 vitesse;
#X floatatom 890 92 5 0 0 0 - - -;
#X msg 936 92 128;
#X floatatom 921 154 5 0 0 0 - - -;
#X obj 1018 12 spigot;
#X obj 1202 26 -;
#X msg 1203 -17 1;
#X floatatom 1237 41 5 0 0 0 - - -;
#X obj 1172 98 spigot;
#X obj 1042 95 / 127;
#X obj 1018 149 *;
#X obj 1064 200 / 127;
#X obj 1018 188 +;
#X obj 1042 30 r b;
#X obj 1063 129 r b;
#X obj 1256 73 r b;
#X obj 1172 169 *;
#X obj 1220 207 +;
#X obj 1269 167 r b;
#X obj 936 68 r b;
#X floatatom 1052 811 5 0 0 0 - - -;
#X obj 754 377 -;
#X msg 754 347 1;
#X floatatom 768 403 5 0 0 0 - - -;
#X obj 787 46 select 127 128 129;
#X obj 921 120 >;
#X msg 1042 56 -5000;
#X msg 1063 158 1.91e+06;
#X msg 1269 196 5000;
#X msg 1257 104 625;
#X obj 1254 138 / 16;
#X obj 223 372 r y;
#X obj 223 577 +;
#X obj 223 658 sqrt;
#X floatatom 283 690 5 0 0 0 - - -;
#X floatatom 433 625 5 0 0 0 - - -;
#X obj 223 425 pow 2;
#X obj 284 464 pow 2;
#X obj 223 400 abs;
#X obj 284 439 abs;
#X obj 297 597 pow 2;
#X obj 297 572 abs;
#X obj 223 636 +;
#X obj 365 43 bng 15 250 50 0 empty empty empty 17 7 0 10 -262144 -1
-1;
#X obj 365 -84 route key;
#X obj 365 -37 route btn_9;
#X obj 365 -2 select 1;
#X obj 346 181 s reset_y;
#X msg 735 717 set;
#X obj 735 764 \$1 \$2;
#X msg 735 799 \$1 \$2;
#X obj 509 -206 tgl 15 0 empty empty empty 17 7 0 10 -262144 -1 -1
0 1;
#X msg 425 124 0;
#X obj 736 1032 r y;
#X msg 315 125 0;
#X msg 283 1063 sendtyped /0x00/Parameters/Source_1_Delta f \$1;
#X msg 277 1324 sendtyped /0x00/Parameters/Source_1_Radius f \$1;
#X msg 333 1506 disconnect;
#X obj 335 1453 r b;
#X obj 93 1565 udpsend;
#X obj 93 1376 packOSC;
#X msg 335 1481 connect localhost 5510;
#X msg 141 1129 sendtyped /0x00/Parameters/Source_1_Theta f \$1;
#X obj 141 902 acos;
#X obj 141 860 /;
#X floatatom 109 1062 5 0 0 0 - - -;
#X obj 141 928 * 180;
#X obj 141 957 / 3.14159;
#X floatatom 188 1030 5 0 0 0 - - -;
#X obj 29 1028 spigot;
#X obj 141 1030 spigot;
#X msg 29 922 360;
#X obj 29 953 -;
#X floatatom 9 1060 5 0 0 0 - - -;
#X obj 140 747 r y;
#X floatatom 77 1028 5 0 0 0 - - -;
#X obj 62 1002 >= 0;
#X obj 174 1006 < 0;
#X obj 283 933 asin;
#X obj 156 792 sqrt;
#X obj 283 886 /;
#X obj 283 956 * 180;
#X obj 283 979 / 3.14159;
#X obj 277 1282 spigot;
#X obj 141 1100 spigot;
#X obj 283 1027 spigot;
#X obj 223 690 s rayon;
#X obj 277 1255 r rayon;
#X obj 298 759 r rayon;
#X obj 402 533 r rayon;
#X obj 174 1072 r rmin;
#X floatatom 508 632 5 0 0 0 - - -;
#X obj 453 733 &&;
#X obj 629 0 s abs_y;
#X obj 584 -108 route abs_x abs_y abs_rz;
#X obj 584 -25 s abs_x;
#X obj 785 -84 r abs_x;
#X obj 1018 -84 r abs_x;
#X obj 1172 -84 r abs_x;
#X obj 922 185 s sens_x;
#X obj 1051 -32 r sens_x;
#X obj 1240 -32 r sens_x;
#X obj 769 285 r sens_x;
#X obj 812 410 r x;
#X obj 938 787 s x;
#X obj 1093 437 r sens_x;
#X obj 965 394 r x;
#X obj 1086 546 r x;
#X obj 765 717 r reset_x;
#X obj 250 181 s reset_x;
#X obj 174 981 r x;
#X obj 62 976 r x;
#X obj 764 1045 r x;
#X obj 284 412 r x;
#X obj 53 -208 s rmax;
#X obj 53 -268 r b;
#X text 86 -239 rayon maximum;
#X text 343 813 test du rayon limite : entre 0.5m et 50m \, en dehors
de cette zone \, aucune instruction OSC n'est envoyée;
#X obj 453 791 s r_ok;
#X obj 769 1189 r r_ok;
#X obj 316 1002 r r_ok;
#X obj 310 1232 r r_ok;
#X obj 177 -268 r b;
#X msg 177 -238 0.5;
#X obj 177 -208 s rmin;
#X text 211 -239 rayon minimum;
#X obj 402 599 >;
#X obj 417 566 r rmin;
#X text 772 305 sens croissant;
#X text 1098 456 sens decroissant;
#X obj 712 326 r rmax;
#X obj 697 354 f;
#X obj 697 395 * -1;
#X msg 374 124 1.07;
#X text 297 94 position initiale de la source;
#X obj 1039 365 r rmax;
#X obj 1024 394 f;
#X obj 148 42 bng 15 250 50 0 empty empty empty 17 7 0 10 -262144 -1
-1;
#X obj 148 -3 select 1;
#X obj 18 45 bng 15 250 50 0 empty empty empty 17 7 0 10 -262144 -1
-1;
#X obj 18 0 select 1;
#X obj 18 -35 route btn_5;
#X obj 148 -38 route btn_4;
#X obj 147 122 s rmax;
#X text 126 67 rayon maximum;
#X msg 147 92 10;
#X obj 18 125 s rmax;
#X text -2 74 rayon maximum;
#X msg 18 92 50;
#X obj 1589 288 hsl 128 15 5000 10000 1 0 empty empty empty -2 -8 0
10 -262144 -1 -1 0 1;
#X floatatom 1721 334 5 0 0 0 - - -;
#X obj 1552 746 line;
#X msg 1552 371 set;
#X obj 1552 418 \$1 \$2;
#X msg 1552 453 \$1 \$2;
#X obj 1599 531 /;
#X floatatom 1599 563 5 0 0 0 - - -;
#X text 1596 579 vitesse;
#X floatatom 1666 804 5 0 0 0 - - -;
#X obj 1368 370 -;
#X msg 1368 340 1;
#X floatatom 1382 396 5 0 0 0 - - -;
#X msg 1349 710 set;
#X obj 1349 757 \$1 \$2;
#X msg 1349 792 \$1 \$2;
#X obj 1326 321 r rmax;
#X obj 1311 347 f;
#X obj 1311 388 * -1;
#X obj 1653 354 r rmax;
#X obj 1638 387 f;
#X obj 1378 278 r sens_y;
#X text 1386 298 sens decroissant;
#X text 1708 448 sens croissant;
#X obj 1707 430 r sens_y;
#X obj 1579 387 r y;
#X obj 1431 397 r y;
#X obj 1376 709 r reset_y;
#X obj 1552 780 s y;
#X obj 678 -33 s abs_z;
#X text 644 -192 axe x : x axe y : y axe z : z on inverse x et y pour
un controle plus naturel du point de vue de l'interieur de la sphere
;
#X text 1048 -58 sens decroissant;
#X text 1233 -55 sens croissant;
#X obj 2290 293 hsl 128 15 5000 10000 1 0 empty empty empty -2 -8 0
10 -262144 -1 -1 0 1;
#X floatatom 2422 339 5 0 0 0 - - -;
#X obj 2253 751 line;
#X msg 2253 376 set;
#X obj 2253 423 \$1 \$2;
#X msg 2253 458 \$1 \$2;
#X obj 2300 536 /;
#X floatatom 2417 607 5 0 0 0 - - -;
#X floatatom 2278 565 5 0 0 0 - - -;
#X obj 2385 577 -;
#X text 2412 619 distance;
#X text 2267 581 vitesse;
#X obj 2374 490 spigot;
#X floatatom 2367 809 5 0 0 0 - - -;
#X obj 2069 375 -;
#X msg 2069 345 1;
#X floatatom 2083 401 5 0 0 0 - - -;
#X obj 2036 450 spigot;
#X obj 2117 462 abs;
#X floatatom 2185 466 5 0 0 0 - - -;
#X obj 2117 436 -;
#X text 2181 479 distance;
#X floatatom 2141 587 5 0 0 0 - - -;
#X text 2137 604 temps;
#X msg 2050 715 set;
#X obj 2050 762 \$1 \$2;
#X msg 2050 797 \$1 \$2;
#X obj 2027 326 r rmax;
#X obj 2012 352 f;
#X obj 2012 393 * -1;
#X obj 2354 359 r rmax;
#X obj 2339 392 f;
#X obj 297 544 r z;
#X obj 2079 283 r sens_z;
#X obj 2132 399 r z;
#X obj 2280 392 r z;
#X obj 2408 435 r sens_z;
#X text 2409 453 sens decroissant;
#X text 2087 303 sens croissant;
#X obj 2077 714 r reset_z;
#X obj 2253 785 s z;
#X obj 2400 546 r z;
#X obj 277 799 r z;
#X obj 793 1063 r z;
#X floatatom 1492 84 5 0 0 0 - - -;
#X msg 1538 84 128;
#X floatatom 1523 146 5 0 0 0 - - -;
#X obj 1620 4 spigot;
#X obj 1774 90 spigot;
#X obj 1644 87 / 127;
#X obj 1620 141 *;
#X obj 1666 192 / 127;
#X obj 1620 180 +;
#X obj 1644 22 r b;
#X obj 1665 121 r b;
#X obj 1858 65 r b;
#X obj 1774 161 *;
#X obj 1822 199 +;
#X obj 1871 159 r b;
#X obj 1538 60 r b;
#X obj 1389 38 select 127 128 129;
#X msg 1644 48 -5000;
#X msg 1665 150 1.91e+06;
#X msg 1871 188 5000;
#X msg 1859 96 625;
#X obj 1856 130 / 16;
#X obj 1523 177 s sens_y;
#X obj 1387 -92 r abs_y;
#X obj 1620 -92 r abs_y;
#X obj 1807 33 r sens_y;
#X obj 1774 -91 r abs_y;
#X obj 1523 112 <;
#X text 1653 -74 sens croissant;
#X text 1805 10 sens decroissant;
#X floatatom 2085 93 5 0 0 0 - - -;
#X msg 2131 93 128;
#X floatatom 2116 155 5 0 0 0 - - -;
#X obj 2213 13 spigot;
#X obj 2367 99 spigot;
#X obj 2237 96 / 127;
#X obj 2213 150 *;
#X obj 2259 201 / 127;
#X obj 2213 189 +;
#X obj 2237 31 r b;
#X obj 2258 130 r b;
#X obj 2451 74 r b;
#X obj 2367 170 *;
#X obj 2415 208 +;
#X obj 2464 168 r b;
#X obj 2131 69 r b;
#X obj 1982 47 select 127 128 129;
#X msg 2237 57 -5000;
#X msg 2258 159 1.91e+06;
#X msg 2464 197 5000;
#X msg 2452 105 625;
#X obj 2449 139 / 16;
#X text 2244 -63 sens decroissant;
#X text 2396 16 sens croissant;
#X obj 2117 186 s sens_z;
#X obj 2400 38 r sens_z;
#X obj 2278 -32 r sens_z;
#X obj 1980 -83 r abs_z;
#X obj 2213 -83 r abs_z;
#X obj 2367 -83 r abs_z;
#X obj 441 181 s reset_z;
#X obj 2116 121 <;
#X text 2038 135 inversion du sens de l'axe;
#X text 1455 127 inversion du sens de l'axe;
#X msg 736 1239 sendtyped /position1 fff \$1 \$2 \$3;
#X text 209 1 on remet la source à la position initiale pour éviter
d'avoir une petite vitesse avec une source eloignée;
#X obj 490 31 select 1;
#X obj 490 -37 route btn_8;
#X obj 490 69 tgl 15 0 empty empty empty 17 7 0 10 -262144 -1 -1 0
1;
#X obj 490 -1 change;
#X obj 490 109 s source;
#X obj 559 68 bng 15 250 50 0 empty empty empty 17 7 0 10 -262144 -1
-1;
#X obj 559 109 s bang_source;
#X msg 935 1286 sendtyped /position2 fff \$1 \$2 \$3;
#X obj 935 1392 spigot;
#X obj 968 1348 r source;
#X obj 769 1328 -;
#X msg 769 1302 1;
#X obj 784 1275 r source;
#X obj 736 1354 spigot;
#X obj 1189 1109 r x;
#X obj 1174 1169 f;
#X obj 1272 1169 f;
#X obj 1296 1011 r bang_source;
#X obj 1372 1165 f;
#X obj 1287 1109 r y;
#X obj 1387 1105 r z;
#X obj 1174 1220 s x_status_temp;
#X obj 1272 1220 s y_status_temp;
#X obj 1372 1217 s z_status_temp;
#X obj 1291 1381 f;
#X obj 1389 1381 f;
#X obj 1489 1376 f;
#X obj 1306 1321 r x_status;
#X obj 1404 1321 r y_status;
#X obj 1504 1317 r z_status;
#X obj 1291 1432 s reset_x;
#X obj 1389 1432 s reset_y;
#X obj 1489 1429 s reset_z;
#X obj 1524 1559 f;
#X obj 1622 1559 f;
#X obj 1722 1555 f;
#X obj 1539 1499 r x_status_temp;
#X obj 1637 1499 r y_status_temp;
#X obj 1737 1495 r z_status_temp;
#X obj 1524 1610 s x_status;
#X obj 1623 1611 s y_status;
#X obj 1722 1607 s z_status;
#X msg 53 -238 10;
#X msg 306 1092 sendtyped /0x00/Parameters/Source_2_Delta f \$1;
#X msg 154 1159 sendtyped /0x00/Parameters/Source_2_Theta f \$1;
#X msg 297 1354 sendtyped /0x00/Parameters/Source_2_Radius f \$1;
#X obj 155 1402 packOSC;
#X obj 155 1471 spigot;
#X obj 188 1427 r source;
#X obj 40 1454 -;
#X msg 41 1411 1;
#X obj -2 1360 r source;
#X obj 66 1491 spigot;
#X obj 1531 1178 t b b;
#X floatatom 1635 229 5 0 0 0 - - -;
#X floatatom 1831 261 5 0 0 0 - - -;
#X obj 1652 -29 -;
#X msg 1652 -55 1;
#X obj 1686 -51 r sens_y;
#X text 1730 -53 comment;
#X obj 2246 -12 -;
#X msg 2246 -38 1;
#X obj 241 44 r b;
#X floatatom 113 624 5 0 0 0 - - -;
#X floatatom 295 498 5 0 0 0 - - -;
#X floatatom 171 428 5 0 0 0 - - -;
#X obj 490 606 >;
#X obj 490 530 r rmax;
#X obj 505 568 r rayon;
#X obj 241 69 delay 100;
#X floatatom 496 765 5 0 0 0 - - -;
#X floatatom 81 853 5 0 0 0 - - -;
#X obj 113 826 t b;
#X obj 238 514 t b;
#X obj 323 848 t b;
#X obj 29 889 t b;
#X obj 747 1121 t b;
#X obj 257 587 t b;
#X obj 319 -265 r b;
#X msg 319 -235 0;
#X obj 319 -208 s source;
#X obj 736 1167 pack f f f;
#X obj 736 1213 spigot;
#X msg 256 -368 0;
#X msg 146 -367 0;
#X msg 205 -368 1.07;
#X obj 194 -415 r b;
#X obj 81 -311 s x_status;
#X obj 177 -311 s y_status;
#X obj 272 -311 s z_status;
#X text 114 -174 initialisation des variables;
#X text 842 1029 bang source : entre temps instruction x y z transmise...
;
#X text 321 869 rayon est calculé avec rz donc on attend que rayon
change pour faire le calcul de delta d'où le *1 + t b;
#X obj 262 856 *;
#X msg 262 832 1;
#X obj 862 337 t b;
#X obj 1501 326 t b;
#X obj 2198 340 t b;
#X obj 2070 617 pack;
#X obj 1997 423 *;
#X msg 1985 482 1;
#X obj 2063 523 t b;
#X obj 2103 524 *;
#X msg 2103 488 1;
#X floatatom 2408 714 5 0 0 0 - - -;
#X text 2404 731 temps;
#X obj 2370 683 /;
#X obj 2301 698 pack;
#X obj 2445 541 *;
#X msg 2445 505 1;
#X obj 2486 526 t b;
#X obj 2370 651 *;
#X msg 2370 615 1;
#X obj 2356 581 t b;
#X obj 2103 552 /;
#X obj 2165 502 t b;
#X obj 1335 455 spigot;
#X obj 1416 467 abs;
#X floatatom 1484 471 5 0 0 0 - - -;
#X obj 1416 441 -;
#X text 1480 484 distance;
#X floatatom 1440 592 5 0 0 0 - - -;
#X text 1436 609 temps;
#X obj 1369 622 pack;
#X obj 1296 428 *;
#X msg 1284 487 1;
#X obj 1362 528 t b;
#X obj 1402 529 *;
#X msg 1402 493 1;
#X obj 1402 557 /;
#X obj 1464 507 t b;
#X floatatom 1721 601 5 0 0 0 - - -;
#X obj 1689 571 -;
#X text 1716 613 distance;
#X obj 1678 484 spigot;
#X floatatom 1712 708 5 0 0 0 - - -;
#X text 1708 725 temps;
#X obj 1674 677 /;
#X obj 1605 692 pack;
#X obj 1749 535 *;
#X msg 1749 499 1;
#X obj 1790 520 t b;
#X obj 1674 645 *;
#X msg 1674 609 1;
#X obj 1660 575 t b;
#X obj 717 466 spigot;
#X obj 798 478 abs;
#X floatatom 866 482 5 0 0 0 - - -;
#X obj 798 452 -;
#X text 862 495 distance;
#X floatatom 822 603 5 0 0 0 - - -;
#X text 818 620 temps;
#X obj 751 633 pack;
#X obj 678 439 *;
#X msg 666 498 1;
#X obj 744 539 t b;
#X obj 784 540 *;
#X msg 784 504 1;
#X obj 784 568 /;
#X obj 846 518 t b;
#X obj 1704 540 r y;
#X floatatom 1100 637 5 0 0 0 - - -;
#X obj 1068 607 -;
#X text 1095 649 distance;
#X obj 1057 520 spigot;
#X floatatom 1091 744 5 0 0 0 - - -;
#X text 1087 761 temps;
#X obj 1053 713 /;
#X obj 969 709 pack;
#X obj 1128 571 *;
#X msg 1128 535 1;
#X obj 1169 556 t b;
#X obj 1053 681 *;
#X msg 1053 645 1;
#X obj 1039 611 t b;
#X msg 756 1259 sendtyped /position1sph fff \$1 \$2 \$3;
#X obj 592 1264 pack f f f;
#X msg 944 1310 sendtyped /position2sph fff \$1 \$2 \$3;
#X obj 560 1759 udpsend;
#X text 530 1565 Pour ardour 37 delta 38 radius 39 theta;
#X obj 410 1695 packOSC;
#X msg 399 1635 sendtyped /ardour/routes/plugin/parameter iiif 2 1
37 \$1;
#X msg 439 1608 sendtyped /ardour/routes/plugin/parameter iiif 2 1
38 \$1;
#X msg 453 1662 sendtyped /ardour/routes/plugin/parameter iiif 2 1
39 \$1;
#X msg 625 1729 disconnect;
#X msg 593 1698 connect localhost 5510;
#X msg 531 -239 open 20;
#X msg 1073 1480 connect localhost 5511;
#X connect 1 0 2 0;
#X connect 3 0 2 0;
#X connect 4 0 5 0;
#X connect 6 0 501 0;
#X connect 7 0 8 0;
#X connect 8 0 10 0;
#X connect 8 0 66 0;
#X connect 9 0 117 0;
#X connect 10 0 116 0;
#X connect 11 0 115 0;
#X connect 12 0 200 0;
#X connect 13 0 500 0;
#X connect 14 0 15 0;
#X connect 14 0 20 1;
#X connect 14 0 409 0;
#X connect 16 0 42 0;
#X connect 16 0 126 0;
#X connect 17 0 18 0;
#X connect 18 0 19 0;
#X connect 19 0 16 0;
#X connect 20 0 21 0;
#X connect 20 0 473 0;
#X connect 20 0 472 1;
#X connect 20 0 481 1;
#X connect 20 0 488 0;
#X connect 23 0 47 0;
#X connect 24 0 47 1;
#X connect 25 0 121 0;
#X connect 26 0 32 0;
#X connect 27 0 29 0;
#X connect 27 0 30 1;
#X connect 28 0 27 0;
#X connect 30 0 38 0;
#X connect 31 0 32 1;
#X connect 32 0 34 0;
#X connect 33 0 34 1;
#X connect 34 0 14 0;
#X connect 35 0 48 0;
#X connect 36 0 49 0;
#X connect 37 0 51 0;
#X connect 38 0 39 0;
#X connect 39 0 14 0;
#X connect 40 0 50 0;
#X connect 41 0 24 0;
#X connect 43 0 45 0;
#X connect 43 0 459 1;
#X connect 44 0 43 0;
#X connect 46 0 17 0;
#X connect 46 1 17 0;
#X connect 46 2 17 0;
#X connect 46 3 23 0;
#X connect 47 0 25 0;
#X connect 48 0 31 0;
#X connect 49 0 33 0;
#X connect 50 0 39 1;
#X connect 51 0 52 0;
#X connect 52 0 38 1;
#X connect 53 0 60 0;
#X connect 54 0 64 0;
#X connect 54 0 101 0;
#X connect 54 0 377 0;
#X connect 55 0 56 0;
#X connect 55 0 108 0;
#X connect 58 0 379 0;
#X connect 58 0 54 0;
#X connect 59 0 378 0;
#X connect 59 0 54 1;
#X connect 59 0 387 0;
#X connect 60 0 58 0;
#X connect 61 0 59 0;
#X connect 62 0 64 1;
#X connect 63 0 62 0;
#X connect 64 0 55 0;
#X connect 65 0 76 0;
#X connect 65 0 155 0;
#X connect 65 0 74 0;
#X connect 66 0 67 0;
#X connect 66 0 163 0;
#X connect 66 0 164 0;
#X connect 66 0 315 0;
#X connect 67 0 68 0;
#X connect 68 0 65 0;
#X connect 70 0 71 0;
#X connect 71 0 72 0;
#X connect 72 0 16 0;
#X connect 73 0 8 0;
#X connect 74 0 308 0;
#X connect 75 0 395 0;
#X connect 76 0 131 0;
#X connect 77 0 82 0;
#X connect 78 0 82 0;
#X connect 79 0 81 0;
#X connect 80 0 83 0;
#X connect 82 0 366 0;
#X connect 83 0 81 0;
#X connect 84 0 82 0;
#X connect 85 0 88 0;
#X connect 86 0 385 0;
#X connect 86 0 85 0;
#X connect 88 0 89 0;
#X connect 89 0 92 0;
#X connect 89 0 94 1;
#X connect 89 0 389 0;
#X connect 91 0 95 0;
#X connect 91 0 106 0;
#X connect 92 0 87 0;
#X connect 92 0 106 0;
#X connect 93 0 94 0;
#X connect 94 0 91 0;
#X connect 96 0 86 0;
#X connect 98 0 91 1;
#X connect 98 0 97 0;
#X connect 99 0 90 0;
#X connect 99 0 92 1;
#X connect 100 0 103 0;
#X connect 101 0 86 1;
#X connect 101 0 386 0;
#X connect 102 0 100 0;
#X connect 103 0 104 0;
#X connect 104 0 107 0;
#X connect 105 0 78 0;
#X connect 105 0 359 0;
#X connect 105 0 490 0;
#X connect 105 0 496 0;
#X connect 106 0 84 0;
#X connect 106 0 358 0;
#X connect 106 0 490 1;
#X connect 106 0 497 0;
#X connect 107 0 77 0;
#X connect 107 0 357 0;
#X connect 107 0 490 2;
#X connect 107 0 495 0;
#X connect 109 0 105 0;
#X connect 110 0 102 1;
#X connect 110 0 388 0;
#X connect 111 0 148 0;
#X connect 112 0 106 1;
#X connect 114 0 140 0;
#X connect 114 0 384 0;
#X connect 116 0 9 0;
#X connect 116 1 11 0;
#X connect 116 2 12 0;
#X connect 118 0 46 0;
#X connect 119 0 26 0;
#X connect 120 0 30 0;
#X connect 122 0 26 1;
#X connect 123 0 27 1;
#X connect 123 0 28 0;
#X connect 124 0 43 1;
#X connect 124 0 44 0;
#X connect 125 0 462 1;
#X connect 127 0 478 1;
#X connect 128 0 18 1;
#X connect 129 0 476 1;
#X connect 130 0 71 1;
#X connect 130 0 70 0;
#X connect 130 0 126 0;
#X connect 132 0 99 0;
#X connect 133 0 98 0;
#X connect 134 0 395 1;
#X connect 134 0 390 0;
#X connect 135 0 61 0;
#X connect 137 0 356 0;
#X connect 141 0 396 1;
#X connect 142 0 107 1;
#X connect 143 0 105 1;
#X connect 144 0 145 0;
#X connect 145 0 146 0;
#X connect 148 0 57 0;
#X connect 148 0 114 0;
#X connect 149 0 148 1;
#X connect 152 0 153 1;
#X connect 153 0 154 0;
#X connect 154 0 467 1;
#X connect 154 0 462 0;
#X connect 155 0 69 0;
#X connect 157 0 158 1;
#X connect 158 0 20 0;
#X connect 158 0 483 1;
#X connect 158 0 476 0;
#X connect 159 0 167 0;
#X connect 160 0 159 0;
#X connect 160 0 65 0;
#X connect 161 0 170 0;
#X connect 162 0 161 0;
#X connect 162 0 65 0;
#X connect 163 0 162 0;
#X connect 164 0 160 0;
#X connect 167 0 165 0;
#X connect 170 0 168 0;
#X connect 171 0 172 0;
#X connect 171 0 177 1;
#X connect 171 0 410 0;
#X connect 173 0 180 0;
#X connect 173 0 199 0;
#X connect 174 0 175 0;
#X connect 175 0 176 0;
#X connect 176 0 173 0;
#X connect 177 0 178 0;
#X connect 177 0 444 0;
#X connect 177 0 451 1;
#X connect 177 0 458 0;
#X connect 177 0 443 1;
#X connect 181 0 183 0;
#X connect 181 0 430 1;
#X connect 182 0 181 0;
#X connect 184 0 185 0;
#X connect 185 0 186 0;
#X connect 186 0 173 0;
#X connect 187 0 188 1;
#X connect 188 0 189 0;
#X connect 189 0 438 1;
#X connect 189 0 433 0;
#X connect 190 0 191 1;
#X connect 191 0 177 0;
#X connect 191 0 453 1;
#X connect 191 0 446 0;
#X connect 192 0 181 1;
#X connect 192 0 182 0;
#X connect 195 0 448 1;
#X connect 196 0 175 1;
#X connect 197 0 433 1;
#X connect 198 0 185 1;
#X connect 198 0 184 0;
#X connect 198 0 199 0;
#X connect 204 0 205 0;
#X connect 204 0 210 1;
#X connect 204 0 411 0;
#X connect 206 0 217 0;
#X connect 206 0 244 0;
#X connect 207 0 208 0;
#X connect 208 0 209 0;
#X connect 209 0 206 0;
#X connect 210 0 212 0;
#X connect 210 0 427 0;
#X connect 210 0 420 1;
#X connect 210 0 428 1;
#X connect 210 0 429 0;
#X connect 213 0 211 0;
#X connect 213 0 425 1;
#X connect 216 0 421 0;
#X connect 218 0 220 0;
#X connect 218 0 221 1;
#X connect 219 0 218 0;
#X connect 221 0 412 0;
#X connect 222 0 223 0;
#X connect 222 0 416 1;
#X connect 224 0 222 0;
#X connect 228 0 229 0;
#X connect 229 0 230 0;
#X connect 230 0 206 0;
#X connect 231 0 232 1;
#X connect 232 0 233 0;
#X connect 233 0 224 0;
#X connect 233 0 413 1;
#X connect 234 0 235 1;
#X connect 235 0 213 0;
#X connect 235 0 210 0;
#X connect 235 0 422 1;
#X connect 236 0 63 0;
#X connect 236 0 391 0;
#X connect 237 0 218 1;
#X connect 237 0 219 0;
#X connect 238 0 224 1;
#X connect 239 0 208 1;
#X connect 240 0 216 1;
#X connect 243 0 229 1;
#X connect 243 0 228 0;
#X connect 243 0 244 0;
#X connect 245 0 213 1;
#X connect 246 0 407 1;
#X connect 247 0 395 2;
#X connect 247 0 390 0;
#X connect 248 0 275 0;
#X connect 249 0 275 1;
#X connect 250 0 270 0;
#X connect 251 0 254 0;
#X connect 252 0 260 0;
#X connect 253 0 254 1;
#X connect 254 0 256 0;
#X connect 255 0 256 1;
#X connect 256 0 171 0;
#X connect 256 0 368 0;
#X connect 257 0 265 0;
#X connect 258 0 266 0;
#X connect 259 0 268 0;
#X connect 260 0 261 0;
#X connect 261 0 171 0;
#X connect 261 0 369 0;
#X connect 262 0 267 0;
#X connect 263 0 249 0;
#X connect 264 0 174 0;
#X connect 264 1 174 0;
#X connect 264 2 174 0;
#X connect 264 3 248 0;
#X connect 265 0 253 0;
#X connect 266 0 255 0;
#X connect 267 0 261 1;
#X connect 268 0 269 0;
#X connect 269 0 260 1;
#X connect 271 0 264 0;
#X connect 272 0 251 0;
#X connect 273 0 252 1;
#X connect 274 0 252 0;
#X connect 275 0 250 0;
#X connect 278 0 309 0;
#X connect 279 0 309 1;
#X connect 280 0 302 0;
#X connect 281 0 284 0;
#X connect 282 0 290 0;
#X connect 283 0 284 1;
#X connect 284 0 286 0;
#X connect 285 0 286 1;
#X connect 286 0 204 0;
#X connect 287 0 295 0;
#X connect 288 0 296 0;
#X connect 289 0 298 0;
#X connect 290 0 291 0;
#X connect 291 0 204 0;
#X connect 292 0 297 0;
#X connect 293 0 279 0;
#X connect 294 0 207 0;
#X connect 294 1 207 0;
#X connect 294 2 207 0;
#X connect 294 3 278 0;
#X connect 295 0 283 0;
#X connect 296 0 285 0;
#X connect 297 0 291 1;
#X connect 298 0 299 0;
#X connect 299 0 290 1;
#X connect 303 0 282 1;
#X connect 304 0 375 0;
#X connect 304 0 374 1;
#X connect 305 0 294 0;
#X connect 306 0 281 0;
#X connect 307 0 282 0;
#X connect 309 0 280 0;
#X connect 312 0 327 0;
#X connect 314 0 316 0;
#X connect 314 0 319 0;
#X connect 315 0 317 0;
#X connect 316 0 318 0;
#X connect 317 0 314 0;
#X connect 319 0 320 0;
#X connect 321 0 322 0;
#X connect 322 0 3 0;
#X connect 323 0 322 1;
#X connect 324 0 327 1;
#X connect 325 0 324 0;
#X connect 326 0 324 1;
#X connect 326 0 325 0;
#X connect 327 0 3 0;
#X connect 328 0 329 1;
#X connect 329 0 335 0;
#X connect 330 0 336 0;
#X connect 331 0 332 0;
#X connect 331 0 330 0;
#X connect 331 0 329 0;
#X connect 331 0 367 0;
#X connect 332 0 337 0;
#X connect 333 0 330 1;
#X connect 334 0 332 1;
#X connect 338 0 344 0;
#X connect 339 0 345 0;
#X connect 340 0 346 0;
#X connect 341 0 338 1;
#X connect 342 0 339 1;
#X connect 343 0 340 1;
#X connect 347 0 353 0;
#X connect 348 0 354 0;
#X connect 349 0 355 0;
#X connect 350 0 347 1;
#X connect 351 0 348 1;
#X connect 352 0 349 1;
#X connect 356 0 136 0;
#X connect 357 0 360 0;
#X connect 358 0 360 0;
#X connect 359 0 360 0;
#X connect 360 0 361 0;
#X connect 361 0 81 0;
#X connect 362 0 361 1;
#X connect 363 0 366 1;
#X connect 364 0 363 0;
#X connect 365 0 363 1;
#X connect 365 0 364 0;
#X connect 366 0 81 0;
#X connect 367 0 347 0;
#X connect 367 0 348 0;
#X connect 367 0 349 0;
#X connect 367 1 338 0;
#X connect 367 1 339 0;
#X connect 367 1 340 0;
#X connect 370 0 251 1;
#X connect 371 0 370 0;
#X connect 372 0 370 1;
#X connect 372 0 371 0;
#X connect 374 0 281 1;
#X connect 375 0 374 0;
#X connect 376 0 383 0;
#X connect 380 0 113 0;
#X connect 380 0 114 1;
#X connect 381 0 380 0;
#X connect 382 0 380 1;
#X connect 383 0 65 0;
#X connect 386 0 86 0;
#X connect 387 0 54 0;
#X connect 388 0 408 0;
#X connect 389 0 93 0;
#X connect 390 0 395 0;
#X connect 391 0 64 0;
#X connect 392 0 393 0;
#X connect 393 0 394 0;
#X connect 395 0 396 0;
#X connect 396 0 321 0;
#X connect 396 0 312 0;
#X connect 397 0 403 0;
#X connect 398 0 401 0;
#X connect 399 0 402 0;
#X connect 400 0 398 0;
#X connect 400 0 399 0;
#X connect 400 0 397 0;
#X connect 407 0 102 0;
#X connect 408 0 407 0;
#X connect 409 0 158 0;
#X connect 409 0 153 0;
#X connect 410 0 191 0;
#X connect 410 0 188 0;
#X connect 411 0 232 0;
#X connect 411 0 235 0;
#X connect 412 0 206 0;
#X connect 413 0 221 0;
#X connect 414 0 413 0;
#X connect 415 0 414 0;
#X connect 416 0 428 0;
#X connect 417 0 416 0;
#X connect 420 0 418 0;
#X connect 420 0 421 1;
#X connect 420 0 424 0;
#X connect 421 0 206 0;
#X connect 422 0 216 0;
#X connect 423 0 422 0;
#X connect 424 0 423 0;
#X connect 425 0 420 0;
#X connect 426 0 425 0;
#X connect 427 0 426 0;
#X connect 428 0 226 0;
#X connect 428 0 412 1;
#X connect 428 0 415 0;
#X connect 429 0 417 0;
#X connect 430 0 437 0;
#X connect 431 0 432 0;
#X connect 431 0 441 1;
#X connect 433 0 431 0;
#X connect 437 0 173 0;
#X connect 438 0 430 0;
#X connect 439 0 438 0;
#X connect 440 0 439 0;
#X connect 441 0 443 0;
#X connect 442 0 441 0;
#X connect 443 0 435 0;
#X connect 443 0 437 1;
#X connect 443 0 440 0;
#X connect 444 0 442 0;
#X connect 446 0 445 0;
#X connect 446 0 456 1;
#X connect 448 0 452 0;
#X connect 451 0 449 0;
#X connect 451 0 452 1;
#X connect 451 0 455 0;
#X connect 452 0 173 0;
#X connect 453 0 448 0;
#X connect 454 0 453 0;
#X connect 455 0 454 0;
#X connect 456 0 451 0;
#X connect 457 0 456 0;
#X connect 458 0 457 0;
#X connect 459 0 466 0;
#X connect 460 0 461 0;
#X connect 460 0 470 1;
#X connect 462 0 460 0;
#X connect 466 0 16 0;
#X connect 467 0 459 0;
#X connect 468 0 467 0;
#X connect 469 0 468 0;
#X connect 470 0 472 0;
#X connect 471 0 470 0;
#X connect 472 0 464 0;
#X connect 472 0 466 1;
#X connect 472 0 469 0;
#X connect 473 0 471 0;
#X connect 474 0 446 1;
#X connect 476 0 475 0;
#X connect 476 0 486 1;
#X connect 478 0 482 0;
#X connect 481 0 479 0;
#X connect 481 0 482 1;
#X connect 481 0 485 0;
#X connect 482 0 16 0;
#X connect 483 0 478 0;
#X connect 484 0 483 0;
#X connect 485 0 484 0;
#X connect 486 0 481 0;
#X connect 487 0 486 0;
#X connect 488 0 487 0;
#X connect 489 0 327 0;
#X connect 490 0 489 0;
#X connect 490 0 491 0;
#X connect 491 0 322 0;
#X connect 495 0 494 0;
#X connect 496 0 494 0;
#X connect 497 0 494 0;
#X connect 499 0 492 0;
#X connect 500 0 8 0;
#X connect 501 0 2 0;
