#N canvas 0 22 458 308 10;
#X obj 114 22 inlet gain 0 1;
#X obj 114 73 t f f;
#X obj 114 116 *;
#X obj 114 155 outlet;
#X obj 114 47 clip 0 1;
#X connect 0 0 4 0;
#X connect 1 0 2 0;
#X connect 1 1 2 1;
#X connect 2 0 3 0;
#X connect 4 0 1 0;
